<svg width="49" height="58" viewBox="0 0 49 58" fill="none" xmlns="http://www.w3.org/2000/svg">
<path d="M36.4174 3.625H10.7091C7.20441 3.625 4.36328 6.79628 4.36328 10.7083V42.0417C4.36328 45.9537 7.20441 49.125 10.7091 49.125H36.4174C39.9221 49.125 42.7633 45.9537 42.7633 42.0417V10.7083C42.7633 6.79628 39.9221 3.625 36.4174 3.625Z" fill="white" stroke="#346751" stroke-width="0.75" stroke-miterlimit="10"/>
<path d="M9.59961 11.5H37.5269" stroke="#346751" stroke-width="0.75" stroke-miterlimit="10" stroke-linecap="round"/>
<path d="M9.59961 15.875H37.5269" stroke="#346751" stroke-width="0.75" stroke-miterlimit="10" stroke-linecap="round"/>
<path d="M9.59961 20.25H37.5269" stroke="#346751" stroke-width="0.75" stroke-miterlimit="10" stroke-linecap="round"/>
<path d="M9.59961 24.625H37.5269" stroke="#346751" stroke-width="0.75" stroke-miterlimit="10" stroke-linecap="round"/>
<path d="M9.59961 28.125H37.5269" stroke="#346751" stroke-width="0.75" stroke-miterlimit="10" stroke-linecap="round"/>
<path d="M9.59961 32.5H37.5269" stroke="#346751" stroke-width="0.75" stroke-miterlimit="10" stroke-linecap="round"/>
<path d="M9.59961 36.875H37.5269" stroke="#346751" stroke-width="0.75" stroke-miterlimit="10" stroke-linecap="round"/>
<path d="M9.59961 41.25H37.5269" stroke="#346751" stroke-width="0.75" stroke-miterlimit="10" stroke-linecap="round"/>
<path d="M23.5635 6.25C25.0095 6.25 26.1817 5.07475 26.1817 3.625C26.1817 2.17525 25.0095 1 23.5635 1C22.1175 1 20.9453 2.17525 20.9453 3.625C20.9453 5.07475 22.1175 6.25 23.5635 6.25Z" fill="#346751" stroke="white" stroke-width="0.75" stroke-miterlimit="10"/>
<path d="M46.7448 33.3688H32.7898C32.1735 33.3688 31.6738 33.8685 31.6738 34.485V55.7442C31.6738 56.3607 32.1735 56.8605 32.7898 56.8605H46.7448C47.3611 56.8605 47.8607 56.3607 47.8607 55.7442V34.485C47.8607 33.8685 47.3611 33.3688 46.7448 33.3688Z" fill="white" stroke="#346751" stroke-width="0.75" stroke-miterlimit="10"/>
<path d="M35.4876 40.9036H34.2712C33.6549 40.9036 33.1553 41.4033 33.1553 42.0198V43.2365C33.1553 43.853 33.6549 44.3528 34.2712 44.3528H35.4876C36.1039 44.3528 36.6036 43.853 36.6036 43.2365V42.0198C36.6036 41.4033 36.1039 40.9036 35.4876 40.9036Z" fill="white" stroke="#346751" stroke-width="0.75" stroke-miterlimit="10"/>
<path d="M40.5208 40.9036H39.3044C38.6881 40.9036 38.1885 41.4033 38.1885 42.0198V43.2365C38.1885 43.853 38.6881 44.3528 39.3044 44.3528H40.5208C41.1371 44.3528 41.6368 43.853 41.6368 43.2365V42.0198C41.6368 41.4033 41.1371 40.9036 40.5208 40.9036Z" fill="white" stroke="#346751" stroke-width="0.75" stroke-miterlimit="10"/>
<path d="M45.556 40.9036H44.3396C43.7233 40.9036 43.2236 41.4033 43.2236 42.0198V43.2365C43.2236 43.853 43.7233 44.3528 44.3396 44.3528H45.556C46.1723 44.3528 46.6719 43.853 46.6719 43.2365V42.0198C46.6719 41.4033 46.1723 40.9036 45.556 40.9036Z" fill="white" stroke="#346751" stroke-width="0.75" stroke-miterlimit="10"/>
<path d="M35.5823 46.083H34.366C33.7496 46.083 33.25 46.5828 33.25 47.1993V48.416C33.25 49.0325 33.7496 49.5323 34.366 49.5323H35.5823C36.1987 49.5323 36.6983 49.0325 36.6983 48.416V47.1993C36.6983 46.5828 36.1987 46.083 35.5823 46.083Z" fill="white" stroke="#346751" stroke-width="0.75" stroke-miterlimit="10"/>
<path d="M40.6156 46.083H39.3992C38.7828 46.083 38.2832 46.5828 38.2832 47.1993V48.416C38.2832 49.0325 38.7828 49.5323 39.3992 49.5323H40.6156C41.2319 49.5323 41.7315 49.0325 41.7315 48.416V47.1993C41.7315 46.5828 41.2319 46.083 40.6156 46.083Z" fill="white" stroke="#346751" stroke-width="0.75" stroke-miterlimit="10"/>
<path d="M45.6507 46.083H44.4343C43.818 46.083 43.3184 46.5828 43.3184 47.1993V48.416C43.3184 49.0325 43.818 49.5323 44.4343 49.5323H45.6507C46.267 49.5323 46.7667 49.0325 46.7667 48.416V47.1993C46.7667 46.5828 46.267 46.083 45.6507 46.083Z" fill="white" stroke="#346751" stroke-width="0.75" stroke-miterlimit="10"/>
<path d="M35.5823 51.2625H34.366C33.7496 51.2625 33.25 51.7622 33.25 52.3787V53.5954C33.25 54.2119 33.7496 54.7117 34.366 54.7117H35.5823C36.1987 54.7117 36.6983 54.2119 36.6983 53.5954V52.3787C36.6983 51.7622 36.1987 51.2625 35.5823 51.2625Z" fill="white" stroke="#346751" stroke-width="0.75" stroke-miterlimit="10"/>
<path d="M40.6156 51.2625H39.3992C38.7828 51.2625 38.2832 51.7622 38.2832 52.3787V53.5954C38.2832 54.2119 38.7828 54.7117 39.3992 54.7117H40.6156C41.2319 54.7117 41.7315 54.2119 41.7315 53.5954V52.3787C41.7315 51.7622 41.2319 51.2625 40.6156 51.2625Z" fill="white" stroke="#346751" stroke-width="0.75" stroke-miterlimit="10"/>
<path d="M45.6507 51.2625H44.4343C43.818 51.2625 43.3184 51.7622 43.3184 52.3787V53.5954C43.3184 54.2119 43.818 54.7117 44.4343 54.7117H45.6507C46.267 54.7117 46.7667 54.2119 46.7667 53.5954V52.3787C46.7667 51.7622 46.267 51.2625 45.6507 51.2625Z" fill="white" stroke="#346751" stroke-width="0.75" stroke-miterlimit="10"/>
<path d="M45.6512 34.7668H34.2712C33.6549 34.7668 33.1553 35.2666 33.1553 35.8831V38.0459C33.1553 38.6624 33.6549 39.1621 34.2712 39.1621H45.6512C46.2675 39.1621 46.7671 38.6624 46.7671 38.0459V35.8831C46.7671 35.2666 46.2675 34.7668 45.6512 34.7668Z" fill="white" stroke="#346751" stroke-width="0.75" stroke-miterlimit="10"/>
</svg>
