<svg width="51" height="45" viewBox="0 0 51 45" fill="none" xmlns="http://www.w3.org/2000/svg">
<path d="M26.3887 0.499939V43.3578" stroke="#356852" stroke-linecap="round" stroke-linejoin="round"/>
<path d="M49.0142 4.31927H3.76367" stroke="#356852" stroke-linecap="round" stroke-linejoin="round"/>
<path d="M2.24536 37.4164H49.4929C49.9756 37.4164 50.3691 37.8091 50.3691 38.2962V43.6203C50.3691 44.1074 49.9756 44.5 49.4929 44.5H2.24536C1.76265 44.5 1.36914 44.1074 1.36914 43.6203V38.2962C1.36914 37.8091 1.76265 37.4164 2.24536 37.4164Z" fill="white" stroke="#346751"/>
<path d="M3.76367 18.2145H18.3411C18.3411 19.8055 17.7107 21.3314 16.5885 22.4564C15.4664 23.5814 13.9445 24.2135 12.3575 24.2135H9.76966C8.18272 24.2135 6.66078 23.5814 5.53865 22.4564C4.41652 21.3314 3.78611 19.8055 3.78611 18.2145H3.76367Z" stroke="#356852" stroke-miterlimit="10"/>
<path d="M6.44141 18.2144L11.1609 4.81417C11.1769 4.76204 11.2091 4.71641 11.2529 4.68401C11.2967 4.6516 11.3496 4.63409 11.404 4.63409C11.4584 4.63409 11.5114 4.6516 11.5551 4.68401C11.5989 4.71641 11.6311 4.76204 11.6471 4.81417L15.6635 18.1994L6.44141 18.2144Z" stroke="#356852" stroke-miterlimit="10"/>
<path d="M34.4365 18.2145H49.0139C49.0139 19.8055 48.3835 21.3314 47.2614 22.4564C46.1393 23.5814 44.6173 24.2135 43.0304 24.2135H40.4425C38.8556 24.2135 37.3336 23.5814 36.2115 22.4564C35.0894 21.3314 34.459 19.8055 34.459 18.2145H34.4365Z" stroke="#356852" stroke-miterlimit="10"/>
<path d="M37.1143 18.2144L41.8338 4.81417C41.8498 4.76204 41.882 4.71641 41.9257 4.68401C41.9695 4.6516 42.0225 4.63409 42.0769 4.63409C42.1313 4.63409 42.1842 4.6516 42.228 4.68401C42.2717 4.71641 42.304 4.76204 42.3199 4.81417L46.3364 18.1994L37.1143 18.2144Z" stroke="#356852" stroke-miterlimit="10"/>
</svg>
