<svg width="27" height="26" viewBox="0 0 27 26" fill="none" xmlns="http://www.w3.org/2000/svg">
<g clip-path="url(#clip0_755_462)">
<path d="M21.0026 26.0009H6.01012C5.872 25.9582 5.73764 25.9093 5.59826 25.8754C2.9614 25.2375 1.04528 22.9748 1.02644 20.3367C0.995053 15.7787 0.987519 11.2207 1.02644 6.66391C1.05281 3.63905 3.5729 1.07376 6.60027 1.03609C11.1985 0.978327 15.7979 1.0047 20.3974 1.03609C21.874 1.04362 23.1322 1.66391 24.2045 2.66843C25.1801 3.58506 25.6887 4.74653 25.9976 6.01851V21.011C25.646 21.8397 25.3936 22.7325 24.9202 23.4859C24.0274 24.9048 22.6123 25.628 21.0026 26.0009ZM13.5051 24.3924V24.4389C15.5669 24.4389 17.6286 24.4477 19.6892 24.4314C20.2082 24.4467 20.727 24.3969 21.2336 24.2832C23.2502 23.7445 24.4242 22.121 24.433 19.8482C24.4493 15.6217 24.4556 11.3952 24.4192 7.16617C24.4192 6.45673 24.2936 5.68827 24.0036 5.05417C23.1799 3.27993 21.6656 2.56547 19.7507 2.57049C15.7125 2.58054 11.6731 2.57049 7.63368 2.57049C7.19671 2.57049 6.75472 2.59184 6.32528 2.63202C4.39535 2.81158 2.6839 4.47657 2.64121 6.41404C2.56336 10.4924 2.58721 14.5758 2.57717 18.6541C2.57717 19.341 2.57717 20.0353 2.63744 20.7121C2.78435 22.5642 4.52092 24.3184 6.38682 24.3698C8.75748 24.4427 11.1319 24.3924 13.5051 24.3924Z" fill="#E74A2B"/>
<path d="M4.40513 13.4999C4.40513 12.0421 4.33858 10.5817 4.4202 9.12896C4.57088 6.4268 6.52593 4.47552 9.20925 4.40897C12.0797 4.33698 14.9522 4.33698 17.8268 4.40897C20.4147 4.47552 22.4262 6.31882 22.5518 8.9042C22.6974 11.9353 22.71 14.9853 22.5518 18.0165C22.4137 20.755 20.2766 22.5908 17.5166 22.6197C14.8308 22.646 12.145 22.6511 9.46038 22.6197C6.53849 22.5833 4.44657 20.4851 4.39007 17.5594C4.36495 16.2071 4.39007 14.8535 4.39007 13.5011L4.40513 13.4999ZM21.0174 13.5514C21.0174 12.0534 21.0676 10.5529 21.0048 9.05739C20.9358 7.39868 19.6638 6.05136 18.0176 6.00993C15.0443 5.93626 12.0692 5.93375 9.09248 6.00239C7.31699 6.0476 6.0425 7.36352 6.00483 9.14152C5.94331 12.0747 5.95084 15.0117 6.00483 17.9449C6.03748 19.5697 7.37475 20.9584 8.98952 20.9961C12.0031 21.0664 15.0196 21.0664 18.039 20.9961C19.6136 20.9584 20.9395 19.5483 20.9986 17.9826C21.0588 16.5084 21.0161 15.0293 21.0161 13.5514H21.0174Z" fill="#E74A2B"/>
<path d="M17.9127 13.4775C17.9174 14.3504 17.6627 15.2051 17.181 15.933C16.6992 16.661 16.0121 17.2294 15.2067 17.5662C14.4014 17.903 13.5141 17.993 12.6576 17.8248C11.801 17.6566 11.0137 17.2377 10.3956 16.6213C9.77742 16.005 9.3563 15.2189 9.18562 14.3628C9.01495 13.5067 9.10241 12.6192 9.43692 11.8129C9.77143 11.0066 10.3379 10.3179 11.0645 9.83401C11.7911 9.35016 12.645 9.09304 13.5179 9.09527C14.0948 9.09245 14.6665 9.20379 15.2001 9.42286C15.7338 9.64193 16.2188 9.96442 16.6273 10.3717C17.0358 10.7791 17.3597 11.2632 17.5803 11.7962C17.8009 12.3292 17.9138 12.9006 17.9127 13.4775ZM13.4928 16.3655C14.059 16.3682 14.6133 16.203 15.0856 15.8907C15.5579 15.5784 15.927 15.133 16.1462 14.6109C16.3654 14.0889 16.4249 13.5135 16.3171 12.9577C16.2093 12.4018 15.9391 11.8904 15.5407 11.4881C15.1422 11.0858 14.6334 10.8106 14.0786 10.6975C13.5238 10.5843 12.9479 10.6383 12.4238 10.8524C11.8996 11.0666 11.4507 11.4313 11.1339 11.9006C10.817 12.3699 10.6465 12.9226 10.6437 13.4888C10.645 14.2466 10.9447 14.9734 11.4779 15.5118C12.0112 16.0502 12.735 16.3569 13.4928 16.3655Z" fill="#E74A2B"/>
<path d="M19.4961 8.71725C19.477 9.02053 19.3459 9.30589 19.1282 9.51797C18.9106 9.73004 18.6219 9.85369 18.3183 9.86492C18.162 9.86603 18.0071 9.83583 17.8626 9.7761C17.7182 9.71636 17.5872 9.6283 17.4774 9.51712C17.3675 9.40594 17.2811 9.27388 17.2231 9.12874C17.1652 8.9836 17.1368 8.82833 17.1399 8.67207C17.1429 8.51581 17.1772 8.36174 17.2407 8.21895C17.3042 8.07616 17.3957 7.94754 17.5098 7.84069C17.6238 7.73383 17.7581 7.6509 17.9047 7.59679C18.0514 7.54268 18.2073 7.51849 18.3635 7.52564C18.6667 7.54775 18.9507 7.6821 19.1602 7.90245C19.3696 8.1228 19.4894 8.41332 19.4961 8.71725ZM18.882 8.64066C18.5832 8.49249 18.4187 8.34432 18.2705 8.35939C18.1967 8.38819 18.1318 8.436 18.0824 8.49796C18.033 8.55993 18.0009 8.63384 17.9893 8.71223C18.0043 8.83779 18.2115 9.03367 18.3258 9.0274C18.4689 9.01986 18.6108 8.84156 18.882 8.64066Z" fill="#E74A2B"/>
</g>
<defs>
<clipPath id="clip0_755_462">
<rect width="25" height="25" fill="white" transform="translate(1 1)"/>
</clipPath>
</defs>
</svg>
