<svg width="27" height="27" viewBox="0 0 27 27" fill="none" xmlns="http://www.w3.org/2000/svg">
<path d="M14.8069 7.76663C14.8069 5.90949 15.7445 5.90949 16.6821 5.90949H17.8072C17.995 5.91199 18.1815 5.87718 18.3555 5.80714C18.5295 5.73709 18.6877 5.63322 18.8205 5.50165C18.9533 5.37009 19.0582 5.2135 19.1289 5.04113C19.1997 4.86876 19.2348 4.6841 19.2323 4.49806V2.75234C19.2323 2.56542 19.1948 2.38035 19.122 2.20789C19.0492 2.03543 18.9426 1.879 18.8083 1.74769C18.6739 1.61638 18.5146 1.51281 18.3395 1.44298C18.1645 1.37315 17.9771 1.33846 17.7884 1.34092L15.1257 1.30377C14.3504 1.27407 13.5778 1.41135 12.8612 1.70612C12.1447 2.00089 11.5013 2.44614 10.9753 3.01113C10.4494 3.57613 10.0536 4.24742 9.81509 4.97866C9.57661 5.70991 9.50117 6.4837 9.59399 7.24663V9.93949H8.11262C7.73465 9.93949 7.37217 10.0882 7.10491 10.3529C6.83765 10.6176 6.6875 10.9766 6.6875 11.3509V13.0966C6.6875 13.471 6.83765 13.83 7.10491 14.0947C7.37217 14.3594 7.73465 14.5081 8.11262 14.5081H9.59399V24.4809C9.59399 24.7272 9.69277 24.9634 9.8686 25.1375C10.0444 25.3117 10.2829 25.4095 10.5316 25.4095H13.9256C14.1644 25.3953 14.3886 25.2912 14.5525 25.1186C14.7163 24.946 14.8073 24.7178 14.8069 24.4809V14.5081H16.4571C16.835 14.5081 17.1975 14.3594 17.4648 14.0947C17.732 13.83 17.8822 13.471 17.8822 13.0966V11.3509C17.8822 10.9766 17.732 10.6176 17.4648 10.3529C17.1975 10.0882 16.835 9.93949 16.4571 9.93949H14.8069V7.76663Z" stroke="#E74A2B" stroke-width="1.5" stroke-linecap="round" stroke-linejoin="round"/>
</svg>
