<svg width="28" height="26" viewBox="0 0 28 26" fill="none" xmlns="http://www.w3.org/2000/svg">
<path d="M7.62072 3.17548C7.62581 3.82424 7.37297 4.44893 6.91684 4.91457C6.46071 5.38022 5.83791 5.64944 5.18301 5.66405C4.52947 5.64031 3.91012 5.3688 3.45295 4.90566C2.99578 4.44251 2.73574 3.82312 2.72656 3.17548C2.75497 2.54449 3.02458 1.94781 3.48072 1.50639C3.93687 1.06498 4.54542 0.811853 5.18301 0.79834C5.81875 0.812106 6.42516 1.06586 6.87827 1.50771C7.33138 1.94956 7.59696 2.54615 7.62072 3.17548ZM2.98908 10.0841C2.98908 8.65405 3.90791 8.87691 5.18301 8.87691C6.45812 8.87691 7.35819 8.65405 7.35819 10.0841V24.0126C7.35819 25.4612 6.43937 25.1641 5.18301 25.1641C3.92666 25.1641 2.98908 25.4612 2.98908 24.0126V10.0841Z" stroke="#E74A2B" stroke-width="1.5" stroke-linecap="round" stroke-linejoin="round"/>
<path d="M11.1455 10.0839C11.1455 9.28536 11.4455 8.98822 11.9143 8.89536C12.3831 8.8025 13.9957 8.89536 14.5583 8.89536C15.1208 8.89536 15.3459 9.80536 15.3271 10.4925C15.8083 9.85289 16.4472 9.34627 17.1826 9.02111C17.918 8.69595 18.7254 8.56314 19.5274 8.63536C20.3151 8.58767 21.104 8.70462 21.843 8.97862C22.582 9.25261 23.2545 9.67751 23.8169 10.2257C24.3793 10.7739 24.8189 11.4332 25.1072 12.1606C25.3955 12.8881 25.5261 13.6675 25.4904 14.4482V23.9568C25.4904 25.4054 24.5904 25.1082 23.3153 25.1082C22.0402 25.1082 21.1401 25.4054 21.1401 23.9568V16.5282C21.173 16.1459 21.1226 15.761 20.992 15.3997C20.8615 15.0384 20.654 14.7092 20.3836 14.4344C20.1133 14.1596 19.7863 13.9456 19.425 13.807C19.0638 13.6684 18.6766 13.6084 18.2898 13.6311C17.9049 13.6214 17.5222 13.6928 17.1672 13.8406C16.8122 13.9884 16.493 14.2092 16.2306 14.4883C15.9682 14.7675 15.7687 15.0987 15.6453 15.46C15.5218 15.8212 15.4773 16.2043 15.5146 16.5839V24.0125C15.5146 25.4611 14.5958 25.1639 13.3207 25.1639C12.0456 25.1639 11.1455 25.4611 11.1455 24.0125V10.0839Z" stroke="#E74A2B" stroke-width="1.5" stroke-linecap="round" stroke-linejoin="round"/>
</svg>
