<svg width="45" height="51" viewBox="0 0 45 51" fill="none" xmlns="http://www.w3.org/2000/svg">
<path d="M3.6123 25.0522C5.07333 28.9102 7.6034 31.5458 10.0711 34.0926C9.94638 40.0529 8.90407 44.2242 6.84616 49.1244C6.81836 49.2093 6.8105 49.2995 6.8232 49.3879C6.83591 49.4763 6.86885 49.5606 6.91945 49.6343C6.97004 49.708 7.03695 49.7691 7.115 49.8129C7.19305 49.8566 7.28015 49.8819 7.36954 49.8867H28.5945C28.6744 49.8844 28.7529 49.8656 28.8252 49.8315C28.8975 49.7975 28.9619 49.7489 29.0144 49.6887C29.0669 49.6286 29.1064 49.5583 29.1303 49.4822C29.1542 49.4061 29.1621 49.3259 29.1535 49.2466C28.6234 46.0309 28.4987 43.5286 29.2404 40.5796C32.2471 40.6662 35.2693 41.5463 38.1491 41.0107C38.2438 40.9911 38.3319 40.9475 38.4048 40.884C38.4778 40.8206 38.5331 40.7394 38.5655 40.6485C39.2337 38.3706 39.717 36.3772 39.717 34.1704L40.5188 33.7726C40.6076 33.7286 40.6833 33.6622 40.7384 33.5799C40.7935 33.4976 40.826 33.4024 40.8328 33.3037C40.9241 31.9889 40.9241 30.6694 40.8328 29.3546C41.1346 29.3621 41.4366 29.3509 41.737 29.3213C42.3406 29.2457 42.9865 29.1524 43.4631 28.679C43.5306 28.6093 43.579 28.5234 43.6036 28.4296C43.6281 28.3358 43.6281 28.2372 43.6034 28.1435C43.0065 25.7745 40.9107 22.7188 39.1758 20.3653C39.9932 13.7872 38.4185 8.90925 34.9575 5.74689C31.325 2.27117 24.8283 1.0089 19.6435 1.12446C18.462 1.12343 17.2831 1.23356 16.1223 1.45336" stroke="#366852" stroke-miterlimit="10" stroke-linecap="round"/>
<path d="M15.0675 5.21136C13.7573 6.89369 13.1702 9.02635 13.4354 11.1405C13.7006 13.2546 14.7964 15.177 16.4818 16.4852V16.4852C17.1311 15.6524 17.6096 14.7001 17.89 13.6828C18.1703 12.6654 18.247 11.6029 18.1157 10.5559C17.9843 9.50892 17.6475 8.49804 17.1245 7.581C16.6015 6.66396 15.9025 5.85875 15.0675 5.21136V5.21136Z" stroke="#366852" stroke-miterlimit="10" stroke-linecap="round"/>
<path d="M3.76367 6.62248C4.41269 5.7889 5.21997 5.09112 6.13939 4.56902C7.05881 4.04692 8.07234 3.71073 9.12204 3.57968C10.1717 3.44862 11.237 3.52527 12.257 3.80523C13.277 4.0852 14.2317 4.563 15.0666 5.21131V5.21131C13.7559 6.89288 11.8296 7.98619 9.7113 8.25082C7.59295 8.51545 5.45599 7.92974 3.77036 6.62248H3.76367Z" stroke="#366852" stroke-miterlimit="10" stroke-linecap="round"/>
<path d="M13.5484 12.4939C12.943 12.5695 12.3285 12.5254 11.7402 12.3641C11.1519 12.2027 10.6011 11.9273 10.1194 11.5536C9.63777 11.1799 9.23458 10.7151 8.93292 10.1859C8.63126 9.65669 8.43704 9.07336 8.36133 8.46924" stroke="#366852" stroke-miterlimit="10" stroke-linecap="round"/>
<path d="M4.16504 19.8142C5.42046 18.0905 7.31056 16.9348 9.41972 16.6014C11.5289 16.2681 13.6844 16.7842 15.4123 18.0363V18.0363C14.791 18.8903 14.0072 19.6137 13.1056 20.1653C12.2041 20.7168 11.2024 21.0857 10.1579 21.2508C9.11335 21.4159 8.04646 21.374 7.01818 21.1275C5.9899 20.881 5.02038 20.4347 4.16504 19.8142Z" stroke="#366852" stroke-miterlimit="10" stroke-linecap="round"/>
<path d="M2.39246 8.59143C1.77054 9.44491 1.32327 10.4123 1.07622 11.4384C0.82917 12.4644 0.787185 13.529 0.952653 14.5712C1.11812 15.6135 1.48781 16.6129 2.04057 17.5126C2.59334 18.4122 3.31836 19.1943 4.17419 19.8142C5.42906 18.0901 5.94629 15.9392 5.61216 13.8347C5.27804 11.7301 4.11992 9.84411 2.39246 8.59143V8.59143Z" stroke="#366852" stroke-miterlimit="10" stroke-linecap="round"/>
<path d="M10.7581 16.3452C10.5664 15.1307 9.89903 14.042 8.90289 13.3185C7.90675 12.5951 6.66338 12.296 5.44629 12.4872" stroke="#366852" stroke-miterlimit="10" stroke-linecap="round"/>
</svg>
