<svg width="41" height="33" viewBox="0 0 41 33" fill="none" xmlns="http://www.w3.org/2000/svg">
<path fill-rule="evenodd" clip-rule="evenodd" d="M27.1643 17.47C25.6643 16.81 24.4943 15.82 23.6543 14.5C22.8143 13.18 22.3943 11.62 22.3943 9.81999C22.3943 7.23999 23.2043 5.13999 24.8243 3.52C26.4443 1.95999 28.5143 1.17999 31.0343 1.17999C33.5543 1.17999 35.6543 1.99 37.3343 3.61C38.9543 5.23 39.7643 7.3 39.7643 9.82C39.7643 11.02 39.6143 12.22 39.3143 13.42C39.0143 14.62 38.3543 16.42 37.3343 18.82L32.1143 31.78H23.2043L27.1643 17.47ZM38.2584 19.2023C39.2795 16.7991 39.9647 14.9416 40.2844 13.6625C40.6037 12.3857 40.7643 11.1042 40.7643 9.82C40.7643 7.0639 39.8686 4.73006 38.0414 2.90289L38.035 2.89646L38.0284 2.89015C36.1463 1.07527 33.7905 0.179995 31.0343 0.179995C28.2895 0.179994 25.96 1.03805 24.1307 2.79968L24.1239 2.80622L24.1172 2.81289C22.2853 4.64475 21.3943 7.01128 21.3943 9.81999C21.3943 11.7809 21.8539 13.5334 22.8106 15.0369C23.6088 16.2911 24.6714 17.2796 25.9801 17.9998L21.89 32.78H32.7896L38.2584 19.2023ZM5.9243 17.47C4.4243 16.81 3.2543 15.82 2.4143 14.5C1.5743 13.18 1.1543 11.62 1.1543 9.81999C1.1543 7.23999 1.9643 5.13999 3.5843 3.51999C5.2043 1.95999 7.2743 1.17999 9.7943 1.17999C12.3143 1.17999 14.4143 1.98999 16.0943 3.60999C17.7143 5.22999 18.5243 7.3 18.5243 9.81999C18.5243 11.02 18.3743 12.22 18.0743 13.42C17.7743 14.62 17.1143 16.42 16.0943 18.82L10.8743 31.78H1.9643L5.9243 17.47ZM17.0184 19.2024C18.0395 16.7991 18.7247 14.9416 19.0444 13.6625C19.3637 12.3857 19.5243 11.1042 19.5243 9.81999C19.5243 7.0639 18.6286 4.73006 16.8014 2.90289L16.795 2.89646L16.7884 2.89015C14.9063 1.07527 12.5505 0.179993 9.7943 0.179993C7.04948 0.179992 4.72004 1.03804 2.89066 2.79967L2.88386 2.80622L2.87719 2.81289C1.04533 4.64475 0.154297 7.01128 0.154297 9.81999C0.154297 11.7809 0.613875 13.5334 1.57063 15.0369C2.36876 16.2911 3.43136 17.2795 4.74009 17.9998L0.649982 32.78H11.5496L17.0184 19.2024Z" fill="#346751"/>
</svg>
